<?xml version="1.0" encoding="utf-8"?>
<!-- Generator: Adobe Illustrator 19.2.1, SVG Export Plug-In . SVG Version: 6.00 Build 0)  -->
<svg version="1.1" id="Layer_1" xmlns="http://www.w3.org/2000/svg" xmlns:xlink="http://www.w3.org/1999/xlink" x="0px" y="0px"
	 viewBox="0 0 20 20" style="enable-background:new 0 0 20 20;" xml:space="preserve">
<style type="text/css">
	.st0{fill:#FFFFFF;stroke:#1D1E1C;stroke-width:0.6693;stroke-miterlimit:10;}
	.st1{fill:#1D1E1C;stroke:#1D1E1C;stroke-width:0.1;stroke-miterlimit:10;}
</style>
<g>
	<circle class="st0" cx="10" cy="9.9" r="9"/>
</g>
<g>
	<g>
		<path class="st1" d="M14.2,10.5c0.5,0.8,0.9,1.6,0.8,2.5c-0.1,2-1.4,4.3-4.2,4.6c-0.8,0.1-1.7,0-2.5-0.2c-1.5-0.5-2.4-1.4-2.9-2.9
			c-0.5-1.5-0.5-3.1,0-4.6c0,0,0,0,0,0c0.1,0.3,0.2,0.7,0.4,1C5.8,11,6,11.2,6.1,11.3c0.3,0.3,0.7,0.3,0.9-0.1
			c0.1-0.2,0.2-0.3,0.2-0.5c0.1-0.5,0-1-0.2-1.4C6.7,8.9,6.5,8.4,6.5,8C6.4,7.3,6.5,6.7,7.1,6.3C7.3,6.1,7.4,6,7.6,5.8
			c0,0.3,0,0.5-0.1,0.7c-0.1,0.6,0.3,1,0.9,0.8c0.7-0.2,1.1-1,0.8-1.7C9.2,5.4,9,5.1,8.9,4.9C8.3,4,8.7,3.1,9.3,2.6
			c0.3-0.3,0.7-0.3,1.1-0.4c-0.1,0.2-0.2,0.4-0.2,0.6C10.1,2.9,10,3.1,10,3.2c0,0.2,0,0.5,0.2,0.6c0.1,0.1,0.3,0.2,0.4,0.3
			c0.2,0.2,0.5,0.3,0.7,0.5C12,5.3,12.2,6.1,12,7C12,7.3,11.9,7.6,11.8,8c0,0.2,0,0.4,0.2,0.5c0.3,0.2,0.6,0,0.6-0.3
			c0-0.1,0-0.2,0-0.4c-0.1-0.3-0.1-0.5-0.2-0.8c0.8,0.4,1.3,0.7,1.5,1.7c0.2,0.8,0,1.5-0.5,2.1c-0.1,0.1-0.2,0.2-0.3,0.3
			c-0.1,0.1-0.1,0.2-0.2,0.3c-0.1,0.2-0.1,0.5,0.1,0.6c0.2,0.1,0.5,0.1,0.7-0.1c0.1-0.1,0.2-0.3,0.3-0.5
			C14,11.1,14.1,10.8,14.2,10.5z M5.7,11.9c-0.1,0.8,0.2,2.2,0.5,3c0.4,0.8,1,1.4,1.8,1.7C9,17,9.9,17,10.9,16.9
			c2.3-0.4,3.3-2.3,3.4-3.8c0-0.3,0-0.5,0-0.8c-0.3,0.1-0.5,0.3-0.7,0.4c-0.9,0.2-1.5-0.4-1.4-1.2c0.1-0.3,0.2-0.5,0.3-0.7
			c0.1-0.2,0.3-0.4,0.5-0.7c0.3-0.5,0.3-0.9,0.2-1.5c-0.1,0.1-0.1,0.2-0.1,0.2c-0.2,0.1-0.3,0.3-0.5,0.4c-0.7,0.2-1.4-0.4-1.4-1.2
			c0-0.3,0.1-0.7,0.2-1c0.2-0.7,0-1.4-0.6-1.8C10.7,5,10.6,5,10.5,4.9c-0.5-0.3-1-0.6-1.2-1.2C9.2,4,9.3,4.2,9.4,4.5
			C9.6,4.7,9.7,5,9.9,5.2c0.4,0.8,0.2,1.5-0.3,2.2C9,8.2,7.7,8.3,7.1,7.5c0,0,0,0,0,0c0,0.4,0.1,0.7,0.2,1c0.1,0.3,0.3,0.6,0.4,0.9
			c0.2,0.7,0.2,1.4-0.1,2.1c-0.3,0.5-0.8,0.7-1.3,0.6C6.1,12.1,5.9,12,5.7,11.9z"/>
	</g>
</g>
</svg>
