<?xml version="1.0" encoding="utf-8"?>
<!-- Generator: Adobe Illustrator 19.2.1, SVG Export Plug-In . SVG Version: 6.00 Build 0)  -->
<svg version="1.1" id="Layer_1" xmlns="http://www.w3.org/2000/svg" xmlns:xlink="http://www.w3.org/1999/xlink" x="0px" y="0px"
	 viewBox="0 0 20 20" style="enable-background:new 0 0 20 20;" xml:space="preserve">
<metadata><?xpacket begin="﻿" id="W5M0MpCehiHzreSzNTczkc9d"?>
<x:xmpmeta xmlns:x="adobe:ns:meta/" x:xmptk="Adobe XMP Core 5.6-c111 79.158366, 2015/09/25-01:12:00        ">
   <rdf:RDF xmlns:rdf="http://www.w3.org/1999/02/22-rdf-syntax-ns#">
      <rdf:Description rdf:about=""/>
   </rdf:RDF>
</x:xmpmeta>
                                                                                                    
                                                                                                    
                                                                                                    
                                                                                                    
                                                                                                    
                                                                                                    
                                                                                                    
                                                                                                    
                                                                                                    
                                                                                                    
                                                                                                    
                                                                                                    
                                                                                                    
                                                                                                    
                                                                                                    
                                                                                                    
                                                                                                    
                                                                                                    
                                                                                                    
                                                                                                    
                           
<?xpacket end="w"?></metadata>
<style type="text/css">
	.st0{fill:#FFFFFF;stroke:#1D1E1C;stroke-width:0.6693;stroke-miterlimit:10;}
	.st1{fill:none;stroke:#1D1E1C;stroke-width:0.8229;stroke-miterlimit:10;}
</style>
<g>
	<circle class="st0" cx="10" cy="9.9" r="9"/>
	<g>
		<path class="st0" d="M10,2.5c-0.5,0.3-2.7,2.3,0,5C12.7,4.7,10.5,2.8,10,2.5z"/>
		<path class="st0" d="M13,5.9c-0.6,0-3.5,0.3-2.9,4.1C13.9,9.3,13.1,6.4,13,5.9z"/>
		<path class="st0" d="M13.2,9c-0.6,0-3.8,0.4-3.1,4.5C14.2,12.7,13.4,9.6,13.2,9z"/>
		<path class="st0" d="M14.1,12.4c-0.7-0.1-4.3-0.2-4.1,4.5C14.7,16.6,14.3,13.1,14.1,12.4z"/>
		<path class="st0" d="M7,5.9c0.6,0,3.5,0.3,2.9,4.1C6.1,9.3,6.8,6.4,7,5.9z"/>
		<path class="st0" d="M6.7,9c0.6,0,3.8,0.4,3.1,4.5C5.8,12.7,6.6,9.6,6.7,9z"/>
		<path class="st0" d="M5.8,12.4c0.7-0.1,4.3-0.2,4.1,4.5C5.3,16.6,5.7,13.1,5.8,12.4z"/>
	</g>
	<line class="st1" x1="4.1" y1="16.7" x2="15.7" y2="2.8"/>
</g>
</svg>
